<?xml version="1.0" encoding="UTF-8" standalone="no"?>
<!-- Created with Inkscape (http://www.inkscape.org/) -->

<svg
   xmlns:dc="http://purl.org/dc/elements/1.1/"
   xmlns:cc="http://creativecommons.org/ns#"
   xmlns:rdf="http://www.w3.org/1999/02/22-rdf-syntax-ns#"
   xmlns:svg="http://www.w3.org/2000/svg"
   xmlns="http://www.w3.org/2000/svg"
   xmlns:xlink="http://www.w3.org/1999/xlink"
   xmlns:sodipodi="http://sodipodi.sourceforge.net/DTD/sodipodi-0.dtd"
   xmlns:inkscape="http://www.inkscape.org/namespaces/inkscape"
   id="svg2985"
   version="1.1"
   inkscape:version="0.48.2 r9819"
   width="1000"
   height="183.67929"
   xml:space="preserve"
   sodipodi:docname="A.svg"><metadata
     id="metadata2991"><rdf:RDF><cc:Work
         rdf:about=""><dc:format>image/svg+xml</dc:format><dc:type
           rdf:resource="http://purl.org/dc/dcmitype/StillImage" /><dc:title></dc:title></cc:Work></rdf:RDF></metadata><defs
     id="defs2989"><linearGradient
       id="linearGradient3427"><stop
         id="stop3429"
         offset="0"
         style="stop-color:#636362;stop-opacity:1" /><stop
         style="stop-color:#bcbcbb;stop-opacity:1"
         offset="0.5"
         id="stop3431" /><stop
         id="stop3433"
         offset="1"
         style="stop-color:#ffffff;stop-opacity:1" /></linearGradient><linearGradient
       id="linearGradient3414"><stop
         style="stop-color:#636362;stop-opacity:1"
         offset="0"
         id="stop3416" /><stop
         id="stop3422"
         offset="0.5"
         style="stop-color:#9f9f9e;stop-opacity:1" /><stop
         style="stop-color:#cacaca;stop-opacity:1"
         offset="1"
         id="stop3418" /></linearGradient><linearGradient
       id="linearGradient3406"><stop
         id="stop3408"
         offset="0"
         style="stop-color:#aaaaaa;stop-opacity:1" /><stop
         style="stop-color:#d6d5d5;stop-opacity:1"
         offset="0.5"
         id="stop3410" /><stop
         id="stop3412"
         offset="1"
         style="stop-color:#ffffff;stop-opacity:1" /></linearGradient><linearGradient
       id="linearGradient3394"><stop
         style="stop-color:#eaa530;stop-opacity:1"
         offset="0"
         id="stop3396" /><stop
         id="stop3402"
         offset="0.5"
         style="stop-color:#e58f2e;stop-opacity:1" /><stop
         style="stop-color:#dc5227;stop-opacity:1"
         offset="1"
         id="stop3398" /></linearGradient><linearGradient
       id="linearGradient3384"><stop
         style="stop-color:#f0be34;stop-opacity:1"
         offset="0"
         id="stop3386" /><stop
         id="stop3392"
         offset="0.5"
         style="stop-color:#e99f31;stop-opacity:1" /><stop
         style="stop-color:#dd6128;stop-opacity:1"
         offset="1"
         id="stop3388" /></linearGradient><linearGradient
       id="linearGradient3372"><stop
         style="stop-color:#50832f;stop-opacity:1"
         offset="0"
         id="stop3374" /><stop
         id="stop3382"
         offset="0.5"
         style="stop-color:#2f6d2e;stop-opacity:1" /><stop
         style="stop-color:#185b2e;stop-opacity:1"
         offset="1"
         id="stop3376" /></linearGradient><linearGradient
       id="linearGradient3362"><stop
         style="stop-color:#c0d833;stop-opacity:1"
         offset="0"
         id="stop3364" /><stop
         id="stop3370"
         offset="0.5"
         style="stop-color:#86ac2c;stop-opacity:1" /><stop
         style="stop-color:#4d8430;stop-opacity:1"
         offset="1"
         id="stop3366" /></linearGradient><clipPath
       clipPathUnits="userSpaceOnUse"
       id="clipPath3003"><path
         d="m 0,425.197 575.433,0 0,396.85 -575.433,0 0,-396.85 z"
         id="path3005"
         inkscape:connector-curvature="0" /></clipPath><clipPath
       clipPathUnits="userSpaceOnUse"
       id="clipPath3033"><path
         d="m 0,0 595.276,0 0,841.89 L 0,841.89 0,0 z"
         id="path3035"
         inkscape:connector-curvature="0" /></clipPath><clipPath
       clipPathUnits="userSpaceOnUse"
       id="clipPath3057"><path
         d="m 0,0 595.276,0 0,841.89 L 0,841.89 0,0 z"
         id="path3059"
         inkscape:connector-curvature="0" /></clipPath><clipPath
       clipPathUnits="userSpaceOnUse"
       id="clipPath3077"><path
         d="m 0,0 595.276,0 0,841.89 L 0,841.89 0,0 z"
         id="path3079"
         inkscape:connector-curvature="0" /></clipPath><clipPath
       clipPathUnits="userSpaceOnUse"
       id="clipPath3101"><path
         d="m 0,0 595.276,0 0,841.89 L 0,841.89 0,0 z"
         id="path3103"
         inkscape:connector-curvature="0" /></clipPath><clipPath
       clipPathUnits="userSpaceOnUse"
       id="clipPath3125"><path
         d="m 0,0 595.276,0 0,841.89 L 0,841.89 0,0 z"
         id="path3127"
         inkscape:connector-curvature="0" /></clipPath><clipPath
       clipPathUnits="userSpaceOnUse"
       id="clipPath3153"><path
         d="m 0,0 595.276,0 0,841.89 L 0,841.89 0,0 z"
         id="path3155"
         inkscape:connector-curvature="0" /></clipPath><clipPath
       clipPathUnits="userSpaceOnUse"
       id="clipPath3177"><path
         d="m 385.511,156.721 188.653,0 0,36.985 -188.653,0 0,-36.985 z"
         id="path3179"
         inkscape:connector-curvature="0" /></clipPath><clipPath
       clipPathUnits="userSpaceOnUse"
       id="clipPath3191"><path
         d="m 401.576,190.982 0,-16.438 16.431,-16.431 0.007,0.004 0,16.427 -16.437,16.438 -10e-4,0 z"
         id="path3193"
         inkscape:connector-curvature="0" /></clipPath><clipPath
       clipPathUnits="userSpaceOnUse"
       id="clipPath3201"><path
         d="m 6.14842e-4,-0.400559 0.999815158,0 0,0.799897 -0.999815158,0 0,-0.799897 z"
         id="path3203"
         inkscape:connector-curvature="0" /></clipPath><linearGradient
       x1="0"
       y1="0"
       x2="1"
       y2="0"
       gradientUnits="userSpaceOnUse"
       gradientTransform="matrix(-16.437627,32.875315,-32.875315,-16.437627,418.0026,158.08244)"
       spreadMethod="pad"
       id="linearGradient3205"><stop
         style="stop-opacity:1;stop-color:#ffffff"
         offset="0"
         id="stop3207" /><stop
         style="stop-opacity:1;stop-color:#676867"
         offset="1"
         id="stop3209" /></linearGradient><clipPath
       clipPathUnits="userSpaceOnUse"
       id="clipPath3217"><path
         d="m 418.015,190.975 0,-32.867 16.437,16.436 -16.43,16.431 -0.007,0 z"
         id="path3219"
         inkscape:connector-curvature="0" /></clipPath><clipPath
       clipPathUnits="userSpaceOnUse"
       id="clipPath3227"><path
         d="m 3.83004e-5,-0.999655 0.9999716996,0 0,1.999508 -0.9999716996,0 0,-1.999508 z"
         id="path3229"
         inkscape:connector-curvature="0" /></clipPath><linearGradient
       x1="0"
       y1="0"
       x2="1"
       y2="0"
       gradientUnits="userSpaceOnUse"
       gradientTransform="matrix(16.437393,0,0,16.437393,418.01384,174.53999)"
       spreadMethod="pad"
       id="linearGradient3231"><stop
         style="stop-opacity:1;stop-color:#fabb33"
         offset="0"
         id="stop3233" /><stop
         style="stop-opacity:1;stop-color:#e96129"
         offset="1"
         id="stop3235" /></linearGradient><clipPath
       clipPathUnits="userSpaceOnUse"
       id="clipPath3243"><path
         d="m 385.511,174.918 0,-0.747 16.04,-16.038 0.025,0 0,32.849 -16.065,-16.064 z"
         id="path3245"
         inkscape:connector-curvature="0" /></clipPath><clipPath
       clipPathUnits="userSpaceOnUse"
       id="clipPath3253"><path
         d="m -0.503134,-1.00747 0.503762499,0 0,1.007321894 -0.503762499,0 0,-1.007321894 z"
         id="path3255"
         inkscape:connector-curvature="0" /></clipPath><radialGradient
       fx="0"
       fy="0"
       cx="0"
       cy="0"
       r="1"
       gradientUnits="userSpaceOnUse"
       gradientTransform="matrix(32.609889,0,0,32.609883,401.55628,190.98631)"
       spreadMethod="pad"
       id="radialGradient3257"><stop
         style="stop-opacity:1;stop-color:#c7d335"
         offset="0"
         id="stop3259" /><stop
         style="stop-opacity:1;stop-color:#21663a"
         offset="1"
         id="stop3261" /></radialGradient><clipPath
       clipPathUnits="userSpaceOnUse"
       id="clipPath3269"><path
         d="m 385.511,156.721 188.653,0 0,36.985 -188.653,0 0,-36.985 z"
         id="path3271"
         inkscape:connector-curvature="0" /></clipPath><clipPath
       clipPathUnits="userSpaceOnUse"
       id="clipPath3277"><path
         d="m 385.139,174.544 16.438,0 0,-16.438 -16.438,0 0,16.438 z"
         id="path3279"
         inkscape:connector-curvature="0" /></clipPath><clipPath
       clipPathUnits="userSpaceOnUse"
       id="clipPath3293"><path
         d="m 418.014,174.544 16.437,0 0,-16.438 -16.437,0 0,16.438 z"
         id="path3295"
         inkscape:connector-curvature="0" /></clipPath><clipPath
       clipPathUnits="userSpaceOnUse"
       id="clipPath3317"><path
         d="m 0,0 595.276,0 0,841.89 L 0,841.89 0,0 z"
         id="path3319"
         inkscape:connector-curvature="0" /></clipPath><clipPath
       clipPathUnits="userSpaceOnUse"
       id="clipPath3325"><path
         d="m 146.906,447.37 295.534,0 0,-51.52 -295.534,0 0,51.52 z"
         id="path3327"
         inkscape:connector-curvature="0" /></clipPath><linearGradient
       inkscape:collect="always"
       xlink:href="#linearGradient3362"
       id="linearGradient3368"
       x1="398.86774"
       y1="178.95256"
       x2="93.016586"
       y2="577.82031"
       gradientUnits="userSpaceOnUse"
       gradientTransform="matrix(0.8,0,0,-0.8,149.82789,99.88522)" /><linearGradient
       inkscape:collect="always"
       xlink:href="#linearGradient3372"
       id="linearGradient3378"
       x1="394.13809"
       y1="581.76166"
       x2="284.56769"
       y2="983.78253"
       gradientUnits="userSpaceOnUse"
       gradientTransform="matrix(0.8,0,0,-0.8,149.82789,99.88522)" /><linearGradient
       inkscape:collect="always"
       xlink:href="#linearGradient3384"
       id="linearGradient3390"
       x1="640.71088"
       y1="376.48065"
       x2="959.80505"
       y2="460.98386"
       gradientUnits="userSpaceOnUse"
       gradientTransform="translate(149.82789,-742.00478)" /><linearGradient
       inkscape:collect="always"
       xlink:href="#linearGradient3394"
       id="linearGradient3400"
       x1="640.49445"
       y1="377.18777"
       x2="961.06628"
       y2="282.51813"
       gradientUnits="userSpaceOnUse"
       gradientTransform="translate(149.82789,-742.00478)" /><linearGradient
       inkscape:collect="always"
       xlink:href="#linearGradient3427"
       id="linearGradient3425"
       x1="400.44427"
       y1="178.95256"
       x2="800.88855"
       y2="976.68805"
       gradientUnits="userSpaceOnUse"
       gradientTransform="matrix(0.8,0,0,-0.8,149.82789,99.88522)" /><clipPath
       clipPathUnits="userSpaceOnUse"
       id="clipPath3524"><path
         inkscape:connector-curvature="0"
         d="m 18.07,188.15 45.66,0 0,-176.4 -45.66,0 0,176.4 z"
         clip-rule="evenodd"
         id="path3526" /></clipPath><clipPath
       clipPathUnits="userSpaceOnUse"
       id="clipPath3530"><path
         inkscape:connector-curvature="0"
         d="M -1,842 596,842 596,1 -1,1 -1,842 z"
         id="path3532" /></clipPath><clipPath
       clipPathUnits="userSpaceOnUse"
       id="clipPath3536"><path
         inkscape:connector-curvature="0"
         d="m 0,842.04 594.96,0 L 594.96,0 0,0 0,842.04 z"
         id="path3538" /></clipPath></defs><sodipodi:namedview
     pagecolor="#ffffff"
     bordercolor="#666666"
     borderopacity="1"
     objecttolerance="10"
     gridtolerance="10"
     guidetolerance="10"
     inkscape:pageopacity="0"
     inkscape:pageshadow="2"
     inkscape:window-width="1330"
     inkscape:window-height="1035"
     id="namedview2987"
     showgrid="false"
     fit-margin-left="0.5"
     fit-margin-bottom="0.5"
     fit-margin-top="0.5"
     fit-margin-right="0.5"
     inkscape:zoom="0.89702926"
     inkscape:cx="577.39131"
     inkscape:cy="-45.58057"
     inkscape:window-x="579"
     inkscape:window-y="-17"
     inkscape:window-maximized="0"
     inkscape:current-layer="g2993"><inkscape:grid
       type="xygrid"
       id="grid3337"
       empspacing="5"
       visible="true"
       enabled="true"
       snapvisiblegridlinesonly="true" /></sodipodi:namedview><g
     id="g2993"
     inkscape:groupmode="layer"
     inkscape:label="ie_annual_report_2013"
     transform="matrix(1.25,0,0,-1.25,-2191.0085,-30.091174)"><g
       id="g3187"><g
         id="g3189"
         clip-path="url(#clipPath3191)"><g
           id="g3195"><g
             id="g3197"><g
               id="g3199"
               clip-path="url(#clipPath3201)"><path
                 d="m 401.576,190.982 0,-16.438 16.431,-16.431 0.007,0.004 0,16.427 -16.437,16.438 -10e-4,0 z"
                 style="fill:url(#linearGradient3205);stroke:none"
                 id="path3211"
                 inkscape:connector-curvature="0" /></g></g></g></g></g><g
       id="g3213"><g
         id="g3215"
         clip-path="url(#clipPath3217)"><g
           id="g3221"><g
             id="g3223"><g
               id="g3225"
               clip-path="url(#clipPath3227)"><path
                 d="m 418.015,190.975 0,-32.867 16.437,16.436 -16.43,16.431 -0.007,0 z"
                 style="fill:url(#linearGradient3231);stroke:none"
                 id="path3237"
                 inkscape:connector-curvature="0" /></g></g></g></g></g><g
       id="g3239"><g
         id="g3241"
         clip-path="url(#clipPath3243)"><g
           id="g3247"><g
             id="g3249"><g
               id="g3251"
               clip-path="url(#clipPath3253)"><path
                 d="m 385.511,174.918 0,-0.747 16.04,-16.038 0.025,0 0,32.849 -16.065,-16.064 z"
                 style="fill:url(#radialGradient3257);stroke:none"
                 id="path3263"
                 inkscape:connector-curvature="0" /></g></g></g></g></g><g
       id="g3520"
       transform="matrix(0,5.2030421,-5.2030421,0,2684.9728,-343.77442)"><g
         id="g3522"
         clip-path="url(#clipPath3524)"><g
           id="g3528"
           clip-path="url(#clipPath3530)"><g
             id="g3534"
             clip-path="url(#clipPath3536)"><path
               d="m 60.415,158.199 c 0.663,-0.157 1.208,0.4 0.828,1.166 -0.524,1.058 -9.385,13.659 -9.385,13.659 l 0,-6.473 -2.207,0.613 0,9.178 -2.025,2.739 -2.185,-1.753 -0.023,-9.113 -2.208,0.526 0,6.397 c 0,0 -7.431,-6.842 -9.43,-8.587 -0.414,-0.362 -0.829,-1.052 -0.104,-1.446 0.768,-0.418 5.302,-1.534 5.302,-1.534 l 0,-7.71 4.428,-1.172 -0.012,4.764 2.208,-0.526 0.012,-4.863 3.726,-0.92 -0.012,4.721 2.393,-0.613 0,-4.863 4.381,-1.183 -0.011,7.984 c 0,0 2.771,-0.624 4.324,-0.991"
               style="fill:#000000;fill-opacity:1;fill-rule:nonzero;stroke:none"
               id="path3540"
               inkscape:connector-curvature="0" /><path
               d="m 39.482,166.022 16.101,-4.403 0,4.601 -16.101,4.403 0,-4.601"
               style="fill:#efa700;fill-opacity:1;fill-rule:nonzero;stroke:none"
               id="path3542"
               inkscape:connector-curvature="0" /><path
               d="m 52.246,143.693 c 0.848,-0.212 1.407,-1.158 1.484,-1.574 0.106,-0.562 0.074,-1.661 0.074,-1.661 l -14.714,3.695 0,2.846 c 0,0 12.308,-3.095 13.156,-3.306"
               style="fill:#000000;fill-opacity:1;fill-rule:nonzero;stroke:none"
               id="path3544"
               inkscape:connector-curvature="0" /><path
               d="m 48.026,123.017 c 0.607,-0.152 1.181,-0.684 1.366,-1.539 0.143,-0.661 0.107,-1.278 0.107,-1.278 l -1.552,0.387 c 1.001,-0.962 1.767,-2.006 1.767,-3.108 0,-2.251 -1.725,-2.394 -4.311,-1.749 l -6.313,1.574 0,2.468 5.365,-1.337 c 2.004,-0.5 3.471,-0.652 3.471,0.592 0,1.547 -2.523,2.176 -3.881,2.514 l -4.955,1.236 0,2.468 c 10e-4,0 8.454,-2.108 8.936,-2.228"
               style="fill:#000000;fill-opacity:1;fill-rule:nonzero;stroke:none"
               id="path3546"
               inkscape:connector-curvature="0" /><path
               d="m 40.325,95.17 c 0.019,1.099 1.219,1.387 3.857,0.683 1.318,-0.352 3.977,-1.079 3.949,-2.639 -0.027,-1.56 -2.73,-0.946 -4.07,-0.589 -1.298,0.347 -3.764,0.967 -3.736,2.545 z m 13.713,-7.362 c 0,0 0.342,1.999 -1.028,2.346 -0.592,0.15 -5.043,1.271 -5.043,1.308 0.011,10e-4 -0.007,0.027 0.007,0.027 0.12,-0.014 0.299,-0.008 0.299,-0.008 1.129,0.133 1.326,0.907 1.326,1.904 0,2.325 -2.574,4.166 -5.084,4.792 -1.361,0.34 -2.978,0.495 -4.042,-0.002 -1.084,-0.491 -1.511,-1.388 -1.511,-2.581 0,-1.129 0.354,-1.665 1.134,-2.284 0.791,-0.629 -0.998,0.301 -0.998,0.301 l 0,-2.089 14.94,-3.714"
               style="fill:#000000;fill-opacity:1;fill-rule:nonzero;stroke:none"
               id="path3548"
               inkscape:connector-curvature="0" /><path
               d="m 38.908,105.107 c 0,-2.764 2.345,-4.933 5.558,-5.734 3.129,-0.78 5.074,0.408 5.074,3.066 0,2.693 -2.22,4.848 -5.539,5.676 -3.128,0.78 -5.093,-0.402 -5.093,-3.008 z m 1.513,-0.377 c 0.019,1.092 1.212,1.378 3.833,0.678 1.31,-0.349 3.952,-1.072 3.926,-2.622 -0.028,-1.551 -2.715,-0.94 -4.046,-0.585 -1.29,0.344 -3.74,0.961 -3.713,2.529"
               style="fill:#000000;fill-opacity:1;fill-rule:nonzero;stroke:none"
               id="path3550"
               inkscape:connector-curvature="0" /><path
               d="m 50.762,103.249 c 0,0 0.002,0.001 0.003,0.002 0.516,0.409 1.602,-1.121 1.742,-1.281 0.285,-0.328 1.549,-2.02 1.549,-2.02 l -0.08,-0.053 c -0.369,-0.25 -0.74,-0.12 -0.92,0.091 -0.185,0.218 -2.294,3.261 -2.294,3.261"
               style="fill:#000000;fill-opacity:1;fill-rule:nonzero;stroke:none"
               id="path3552"
               inkscape:connector-curvature="0" /><path
               d="m 46.618,127.999 c 0.376,-0.271 1.415,-0.905 2.033,-1.759 0.305,-0.42 0.411,-0.526 0.666,-1.129 0.226,-0.532 0.204,-1.204 0.204,-1.204 l -2.809,0.983 c 0,0 0.418,0.618 -0.224,1.813 -0.159,0.297 -0.765,1.215 -1.264,1.59 0,0 -0.144,0.11 -0.428,0.24 -0.284,0.131 -5.824,1.452 -5.824,1.452 l 0,2.462 c 0,0 7.94,-1.98 8.801,-2.194 0.861,-0.215 1.428,-1.176 1.508,-1.598 0.107,-0.571 0.074,-1.258 0.074,-1.258 l -2.737,0.683 0,-0.081"
               style="fill:#000000;fill-opacity:1;fill-rule:nonzero;stroke:none"
               id="path3554"
               inkscape:connector-curvature="0" /><path
               d="m 46.75,111.193 c 0.376,-0.271 1.415,-0.905 2.033,-1.759 0.305,-0.42 0.411,-0.527 0.667,-1.129 0.226,-0.533 0.203,-1.204 0.203,-1.204 l -2.809,0.983 c 0,0 0.419,0.617 -0.223,1.812 -0.16,0.297 -0.766,1.216 -1.265,1.59 0,0 -0.144,0.111 -0.428,0.241 -0.284,0.13 -5.823,1.452 -5.823,1.452 l 0,2.461 c 0,0 7.939,-1.979 8.8,-2.194 0.861,-0.215 1.429,-1.175 1.508,-1.598 0.107,-0.57 0.074,-1.258 0.074,-1.258 l -2.737,0.683 0,-0.08"
               style="fill:#000000;fill-opacity:1;fill-rule:nonzero;stroke:none"
               id="path3556"
               inkscape:connector-curvature="0" /><path
               d="m 47.958,73.08 c 0.865,-0.215 1.435,-1.18 1.514,-1.605 0.108,-0.573 0.075,-1.264 0.075,-1.264 l -10.428,2.6 0,2.473 c 0,0 7.975,-1.988 8.839,-2.204"
               style="fill:#000000;fill-opacity:1;fill-rule:nonzero;stroke:none"
               id="path3558"
               inkscape:connector-curvature="0" /><path
               d="m 48.02,42.902 c 0.61,-0.152 1.185,-0.686 1.37,-1.542 0.143,-0.663 0.107,-1.281 0.107,-1.281 l -1.555,0.387 c 1.002,-0.962 1.77,-2.009 1.77,-3.113 0,-2.255 -1.728,-2.398 -4.319,-1.752 l -6.324,1.577 0,2.472 5.374,-1.339 c 2.008,-0.501 3.477,-0.654 3.477,0.593 0,1.55 -2.527,2.18 -3.887,2.519 l -4.964,1.238 0,2.472 c 0,0 8.469,-2.111 8.951,-2.231"
               style="fill:#000000;fill-opacity:1;fill-rule:nonzero;stroke:none"
               id="path3560"
               inkscape:connector-curvature="0" /><path
               d="m 48.02,33.114 c 0.61,-0.152 1.185,-0.685 1.37,-1.542 0.143,-0.663 0.107,-1.281 0.107,-1.281 l -1.555,0.388 c 1.002,-0.963 1.77,-2.009 1.77,-3.114 0,-2.255 -1.728,-2.398 -4.319,-1.752 l -6.324,1.577 0,2.473 5.374,-1.34 c 2.008,-0.501 3.477,-0.653 3.477,0.593 0,1.55 -2.527,2.18 -3.887,2.52 l -4.964,1.237 0,2.473 c 0,0 8.469,-2.112 8.951,-2.232"
               style="fill:#000000;fill-opacity:1;fill-rule:nonzero;stroke:none"
               id="path3562"
               inkscape:connector-curvature="0" /><path
               d="m 46.099,79.467 0.015,-0.836 c 0,0 -0.032,-1.358 0.074,-1.925 0.079,-0.42 0.643,-1.376 1.499,-1.589 l 0.112,-0.048 0.008,4.106 c 0,0 3.148,-0.722 3.977,-0.991 1.419,-0.46 0.444,-4.386 0.444,-4.386 l 1.909,-0.476 c 0,0 1.461,6.484 -2.696,7.6 -0.734,0.197 -8.881,2.234 -10.761,2.703 -2.732,0.681 -1.543,-6.386 -1.543,-6.386 l 1.543,-0.39 c 0,0 -1.312,4.407 1.064,3.85 0.848,-0.199 4.355,-1.098 4.355,-1.098 l 0,-0.134"
               style="fill:#000000;fill-opacity:1;fill-rule:nonzero;stroke:none"
               id="path3564"
               inkscape:connector-curvature="0" /><path
               d="m 55.157,78.31 c 0,0 0.002,0.001 0.003,0.001 0.526,0.285 1.631,-1.548 1.773,-1.746 0.29,-0.406 1.577,-2.449 1.577,-2.449 l -0.082,-0.033 c -0.375,-0.161 -0.752,0.065 -0.935,0.325 -0.189,0.27 -2.336,3.902 -2.336,3.902"
               style="fill:#000000;fill-opacity:1;fill-rule:nonzero;stroke:none"
               id="path3566"
               inkscape:connector-curvature="0" /><path
               d="m 40.302,50.72 c 0.019,1.1 1.219,1.325 3.859,0.683 1.625,-0.395 3.979,-1.079 3.952,-2.64 -0.028,-1.561 -2.733,-0.947 -4.073,-0.589 -1.298,0.346 -3.766,0.967 -3.738,2.546 z m 9.17,-6.243 c 0,0 0.285,1.72 -1.012,2.226 -0.219,0.086 -0.361,0.131 -0.441,0.165 -0.036,0.015 -0.107,0.033 -0.118,0.059 -0.052,0.086 0.034,0.069 0.05,0.089 0.093,0.001 0.314,0.006 0.314,0.006 1.117,0.123 1.316,0.914 1.316,1.912 0,2.326 -2.575,4.168 -5.087,4.795 -1.362,0.339 -2.979,0.494 -4.043,-0.003 -1.085,-0.491 -1.512,-1.388 -1.512,-2.582 0,-1.13 0.354,-1.666 1.134,-2.286 0.135,-0.107 0.19,-0.195 0.216,-0.24 0.052,-0.09 -0.025,-0.121 -0.104,-0.097 -0.303,0.096 -1.111,0.584 -1.111,0.584 l 0,-2.036 10.398,-2.592"
               style="fill:#000000;fill-opacity:1;fill-rule:nonzero;stroke:none"
               id="path3568"
               inkscape:connector-curvature="0" /><path
               d="m 46.825,66.32 c 0.379,-0.273 1.425,-0.911 2.048,-1.772 0.307,-0.423 0.414,-0.53 0.671,-1.137 0.228,-0.536 0.205,-1.212 0.205,-1.212 l -2.83,0.99 c 0,0 0.422,0.622 -0.225,1.825 -0.16,0.299 -0.77,1.225 -1.273,1.602 0,0 -0.145,0.111 -0.431,0.242 -0.286,0.131 -5.866,1.463 -5.866,1.463 l 0,2.479 c 0,0 7.998,-1.994 8.865,-2.21 0.867,-0.216 1.438,-1.184 1.518,-1.609 0.108,-0.575 0.075,-1.268 0.075,-1.268 l -2.757,0.688 0,-0.081"
               style="fill:#000000;fill-opacity:1;fill-rule:nonzero;stroke:none"
               id="path3570"
               inkscape:connector-curvature="0" /><path
               d="m 45.463,60.029 c 0,0 3.179,-0.597 3.407,-2.37 0.199,-1.537 -3.432,-2.607 -3.407,-0.346 0.027,2.384 0,2.716 0,2.716 z m -5.311,-2.24 c -0.265,0.96 -0.222,1.2 -0.222,1.2 0.053,2.252 2.334,1.955 4.418,1.318 0,0 0.024,-2.687 0.012,-4.36 -0.003,-0.332 0.15,-0.544 0.331,-0.819 0.853,-1.293 5.199,-1.507 5.157,2.305 -0.029,2.632 -2.181,4.69 -5.24,5.453 -3.526,0.878 -5.695,-0.12 -5.695,-3.125 0,0 -0.063,-0.479 0.105,-1.35 0.04,-0.21 0.187,-0.814 0.582,-1.573 0.292,-0.562 1.341,-0.94 1.025,-0.246 -0.206,0.455 -0.336,0.705 -0.473,1.197"
               style="fill:#000000;fill-opacity:1;fill-rule:nonzero;stroke:none"
               id="path3572"
               inkscape:connector-curvature="0" /><path
               d="m 40.346,138.054 c 0.02,1.1 1.22,1.325 3.859,0.683 1.625,-0.395 3.979,-1.079 3.952,-2.64 -0.027,-1.561 -2.732,-0.947 -4.073,-0.589 -1.298,0.346 -3.765,0.967 -3.738,2.546 z m 9.17,-6.243 c 0,0 0.285,1.72 -1.012,2.226 -0.219,0.086 -0.361,0.131 -0.441,0.165 -0.037,0.015 -0.107,0.033 -0.119,0.059 -0.051,0.086 0.035,0.069 0.05,0.089 0.094,0.001 0.315,0.006 0.315,0.006 1.117,0.123 1.316,0.914 1.316,1.912 0,2.326 -2.575,4.168 -5.087,4.795 -1.362,0.339 -2.98,0.494 -4.044,-0.003 -1.085,-0.491 -1.511,-1.388 -1.511,-2.582 0,-1.129 0.354,-1.666 1.134,-2.286 0.135,-0.107 0.19,-0.195 0.216,-0.24 0.052,-0.09 -0.025,-0.121 -0.104,-0.097 -0.303,0.096 -1.11,0.584 -1.11,0.584 l 0,-2.036 10.397,-2.592"
               style="fill:#000000;fill-opacity:1;fill-rule:nonzero;stroke:none"
               id="path3574"
               inkscape:connector-curvature="0" /></g></g></g></g></g></svg>